<svg xmlns="http://www.w3.org/2000/svg" viewBox="0 0 32 32">
  <rect width="32" height="32" rx="7" fill="#E8451F"/>
  <!-- S path — manually traced, rounded bold style -->
  <path fill="white" d="
    M20.5 10.5
    C20.5 8.0 18.5 6.5 16 6.5
    C13.2 6.5 11 8.3 11 10.8
    C11 13.1 12.6 14.2 15.2 15.0
    L17.0 15.6
    C18.8 16.2 19.8 17.0 19.8 18.6
    C19.8 20.4 18.2 21.5 16.1 21.5
    C13.8 21.5 12.0 20.2 11.8 18.2
    L9.8 18.5
    C10.1 21.6 12.7 23.5 16.1 23.5
    C19.4 23.5 21.9 21.5 21.9 18.5
    C21.9 15.9 20.2 14.7 17.4 13.8
    L15.6 13.2
    C14.0 12.7 13.1 11.9 13.1 10.7
    C13.1 9.2 14.4 8.4 16.0 8.4
    C17.7 8.4 18.9 9.3 19.1 10.8
    Z
  "/>
</svg>
